<mxfile host="app.diagrams.net" agent="Mozilla/5.0 (Windows NT 10.0; Win64; x64) AppleWebKit/537.36 (KHTML, like Gecko) Chrome/135.0.0.0 Safari/537.36 OPR/120.0.0.0" version="28.1.0">
  <diagram id="FEKjINcDisIPV5KZee3t" name="Page-1">
    <mxGraphModel dx="1520" dy="938" grid="1" gridSize="10" guides="1" tooltips="1" connect="1" arrows="1" fold="1" page="1" pageScale="1" pageWidth="827" pageHeight="1169" math="0" shadow="0">
      <root>
        <mxCell id="0" />
        <mxCell id="1" parent="0" />
        <mxCell id="aELBI8OFU14AnCiIAI6i-1" value="" style="fillColor=#B8FDFF;strokeColor=#6c8ebf;opacity=30;rounded=1;arcSize=2;" parent="1" vertex="1">
          <mxGeometry x="73" y="110" width="1510" height="330" as="geometry" />
        </mxCell>
        <mxCell id="aELBI8OFU14AnCiIAI6i-2" value="" style="fillColor=#9EFFCF;strokeColor=#6c8ebf;opacity=30;rounded=1;arcSize=2;" parent="1" vertex="1">
          <mxGeometry x="70" y="458" width="1520" height="494" as="geometry" />
        </mxCell>
        <mxCell id="aELBI8OFU14AnCiIAI6i-3" value="" style="fillColor=#81E87D;strokeColor=none;opacity=40;rounded=1;arcSize=10;" parent="1" vertex="1">
          <mxGeometry x="110" y="768.5" width="1460" height="174" as="geometry" />
        </mxCell>
        <mxCell id="aELBI8OFU14AnCiIAI6i-4" value="" style="fillColor=#12AAB5;strokeColor=none;opacity=50;rounded=1;" parent="1" vertex="1">
          <mxGeometry x="110" y="668.5" width="1460" height="80" as="geometry" />
        </mxCell>
        <mxCell id="aELBI8OFU14AnCiIAI6i-5" value="" style="fillColor=#158EBA;strokeColor=none;opacity=50;rounded=1;" parent="1" vertex="1">
          <mxGeometry x="110" y="577.5" width="1460" height="80" as="geometry" />
        </mxCell>
        <mxCell id="aELBI8OFU14AnCiIAI6i-6" value="Avoid expensive medicines  " style="rounded=1;fillColor=#23445D;gradientColor=none;strokeColor=none;fontColor=#FFFFFF;fontStyle=0;fontFamily=Tahoma;fontSize=23;whiteSpace=wrap;" parent="1" vertex="1">
          <mxGeometry x="1113" y="468" width="360" height="80" as="geometry" />
        </mxCell>
        <mxCell id="aELBI8OFU14AnCiIAI6i-7" value="Get her medicine on time " style="rounded=1;fillColor=#23445D;gradientColor=none;strokeColor=none;fontColor=#FFFFFF;fontStyle=0;fontFamily=Tahoma;fontSize=23;whiteSpace=wrap;" parent="1" vertex="1">
          <mxGeometry x="473" y="468" width="437" height="80" as="geometry" />
        </mxCell>
        <mxCell id="aELBI8OFU14AnCiIAI6i-8" value="" style="edgeStyle=orthogonalEdgeStyle;rounded=0;html=1;jettySize=auto;orthogonalLoop=1;" parent="1" source="aELBI8OFU14AnCiIAI6i-9" target="aELBI8OFU14AnCiIAI6i-10" edge="1">
          <mxGeometry relative="1" as="geometry" />
        </mxCell>
        <mxCell id="aELBI8OFU14AnCiIAI6i-9" value="Live healthier and longer live" style="rounded=1;fillColor=#23445D;gradientColor=none;strokeColor=none;fontColor=#FFFFFF;fontStyle=0;fontFamily=Tahoma;fontSize=20;whiteSpace=wrap;" parent="1" vertex="1">
          <mxGeometry x="356" y="678" width="220" height="60" as="geometry" />
        </mxCell>
        <mxCell id="aELBI8OFU14AnCiIAI6i-10" value="Avoid death" style="rounded=1;fillColor=#23445D;gradientColor=none;strokeColor=none;fontColor=#FFFFFF;fontStyle=0;fontFamily=Tahoma;fontSize=20;whiteSpace=wrap;" parent="1" vertex="1">
          <mxGeometry x="634" y="678" width="253" height="60" as="geometry" />
        </mxCell>
        <mxCell id="aELBI8OFU14AnCiIAI6i-11" value="Get medicine quick and always be there on stock " style="rounded=1;fillColor=#23445D;gradientColor=none;strokeColor=none;fontColor=#FFFFFF;fontStyle=0;fontFamily=Tahoma;fontSize=20;whiteSpace=wrap;" parent="1" vertex="1">
          <mxGeometry x="723" y="593" width="267" height="60" as="geometry" />
        </mxCell>
        <mxCell id="aELBI8OFU14AnCiIAI6i-12" value="Avoid expending more money" style="rounded=1;fillColor=#23445D;gradientColor=none;strokeColor=none;fontColor=#FFFFFF;fontStyle=0;fontFamily=Tahoma;fontSize=20;whiteSpace=wrap;" parent="1" vertex="1">
          <mxGeometry x="1053" y="678" width="207" height="60" as="geometry" />
        </mxCell>
        <mxCell id="aELBI8OFU14AnCiIAI6i-13" value="The EPS provides the medicines on time" style="rounded=1;fillColor=#23445D;gradientColor=none;strokeColor=none;fontColor=#FFFFFF;fontStyle=0;fontFamily=Tahoma;fontSize=20;whiteSpace=wrap;" parent="1" vertex="1">
          <mxGeometry x="1310" y="588" width="223" height="60" as="geometry" />
        </mxCell>
        <mxCell id="aELBI8OFU14AnCiIAI6i-14" value="" style="edgeStyle=elbowEdgeStyle;elbow=vertical;strokeWidth=2;rounded=0;entryX=0.5;entryY=0;exitX=0.5;exitY=1;" parent="1" source="aELBI8OFU14AnCiIAI6i-7" target="aELBI8OFU14AnCiIAI6i-9" edge="1">
          <mxGeometry x="-33" y="267.5" width="100" height="100" as="geometry">
            <mxPoint x="-33" y="367.5" as="sourcePoint" />
            <mxPoint x="472" y="587.5000000000001" as="targetPoint" />
            <Array as="points">
              <mxPoint x="560" y="571.5" />
            </Array>
          </mxGeometry>
        </mxCell>
        <mxCell id="aELBI8OFU14AnCiIAI6i-15" value="" style="edgeStyle=elbowEdgeStyle;elbow=vertical;strokeWidth=2;rounded=0;entryX=0.5;entryY=0;exitX=0.5;exitY=1;" parent="1" source="aELBI8OFU14AnCiIAI6i-7" target="aELBI8OFU14AnCiIAI6i-11" edge="1">
          <mxGeometry x="-33" y="267.5" width="100" height="100" as="geometry">
            <mxPoint x="-33" y="367.5" as="sourcePoint" />
            <mxPoint x="822" y="587.5" as="targetPoint" />
            <Array as="points">
              <mxPoint x="647" y="571.5" />
            </Array>
          </mxGeometry>
        </mxCell>
        <mxCell id="aELBI8OFU14AnCiIAI6i-16" value="" style="edgeStyle=elbowEdgeStyle;elbow=vertical;strokeWidth=2;rounded=0;exitX=0.5;exitY=1;" parent="1" source="aELBI8OFU14AnCiIAI6i-6" target="aELBI8OFU14AnCiIAI6i-12" edge="1">
          <mxGeometry x="-187" y="267.5" width="100" height="100" as="geometry">
            <mxPoint x="-187" y="367.5" as="sourcePoint" />
            <mxPoint x="-87" y="267.5" as="targetPoint" />
            <Array as="points">
              <mxPoint x="1150" y="570" />
              <mxPoint x="1230" y="570" />
              <mxPoint x="1220" y="560" />
              <mxPoint x="1230" y="561.5" />
            </Array>
          </mxGeometry>
        </mxCell>
        <mxCell id="aELBI8OFU14AnCiIAI6i-17" value="" style="edgeStyle=elbowEdgeStyle;elbow=vertical;strokeWidth=2;rounded=0;exitX=0.5;exitY=1;" parent="1" source="aELBI8OFU14AnCiIAI6i-6" target="aELBI8OFU14AnCiIAI6i-13" edge="1">
          <mxGeometry x="-187" y="267.5" width="100" height="100" as="geometry">
            <mxPoint x="-187" y="367.5" as="sourcePoint" />
            <mxPoint x="-87" y="267.5" as="targetPoint" />
            <Array as="points">
              <mxPoint x="1422" y="570" />
              <mxPoint x="1400" y="570" />
              <mxPoint x="1310" y="561.5" />
            </Array>
          </mxGeometry>
        </mxCell>
        <mxCell id="aELBI8OFU14AnCiIAI6i-18" value="&lt;h1&gt;&lt;font style=&quot;font-size: 41px&quot;&gt;Persona Goals&lt;/font&gt;&lt;/h1&gt;&lt;p&gt;What does the persona wants? (Desires,&amp;nbsp; motivations, etc.)&lt;/p&gt;" style="text;html=1;strokeColor=none;fillColor=none;spacing=5;spacingTop=-20;whiteSpace=wrap;overflow=hidden;rounded=0;fontFamily=Tahoma;align=center;" parent="1" vertex="1">
          <mxGeometry x="87" y="457.5" width="330" height="120" as="geometry" />
        </mxCell>
        <mxCell id="aELBI8OFU14AnCiIAI6i-19" value="&lt;h1 style=&quot;font-size: 26px;&quot;&gt;&lt;font style=&quot;font-size: 26px;&quot;&gt;Needs &amp;amp; Expectations&lt;/font&gt;&lt;/h1&gt;" style="text;html=1;strokeColor=none;fillColor=none;spacing=5;spacingTop=-20;whiteSpace=wrap;overflow=hidden;rounded=0;fontFamily=Tahoma;align=center;fontSize=26;" parent="1" vertex="1">
          <mxGeometry x="143.5" y="572" width="217" height="81" as="geometry" />
        </mxCell>
        <mxCell id="aELBI8OFU14AnCiIAI6i-20" value="&lt;h1 style=&quot;font-size: 26px&quot;&gt;&lt;font style=&quot;font-size: 26px&quot;&gt;Desires &amp;amp; Motivations&lt;/font&gt;&lt;/h1&gt;" style="text;html=1;strokeColor=none;fillColor=none;spacing=5;spacingTop=-20;whiteSpace=wrap;overflow=hidden;rounded=0;fontFamily=Tahoma;align=center;fontSize=26;" parent="1" vertex="1">
          <mxGeometry x="143.5" y="667" width="217" height="81" as="geometry" />
        </mxCell>
        <mxCell id="aELBI8OFU14AnCiIAI6i-21" value="Because she wants to live a longer, healthier and with good quality of live" style="rounded=1;fillColor=#12AAB5;strokeColor=#6c8ebf;fontColor=#000000;fontStyle=0;fontFamily=Tahoma;fontSize=23;labelBackgroundColor=none;opacity=60;arcSize=6;whiteSpace=wrap;" parent="1" vertex="1">
          <mxGeometry x="407" y="783" width="480" height="149" as="geometry" />
        </mxCell>
        <mxCell id="aELBI8OFU14AnCiIAI6i-22" value="&lt;h1 style=&quot;font-size: 50px;&quot;&gt;&lt;font style=&quot;font-size: 50px;&quot;&gt;Why?&lt;/font&gt;&lt;/h1&gt;" style="text;html=1;strokeColor=none;fillColor=none;spacing=5;spacingTop=-20;whiteSpace=wrap;overflow=hidden;rounded=0;fontFamily=Tahoma;align=center;fontSize=50;verticalAlign=middle;" parent="1" vertex="1">
          <mxGeometry x="144" y="772" width="217" height="170" as="geometry" />
        </mxCell>
        <mxCell id="aELBI8OFU14AnCiIAI6i-23" value="Because she wants to make money worth that she expended on the EPS and insurance" style="rounded=1;fillColor=#12AAB5;strokeColor=#6c8ebf;fontColor=#000000;fontStyle=0;fontFamily=Tahoma;fontSize=23;labelBackgroundColor=none;opacity=60;arcSize=6;whiteSpace=wrap;" parent="1" vertex="1">
          <mxGeometry x="1053" y="783" width="480" height="149" as="geometry" />
        </mxCell>
        <mxCell id="aELBI8OFU14AnCiIAI6i-24" value="" style="fillColor=#FFBF87;strokeColor=#d79b00;opacity=30;rounded=1;arcSize=2;" parent="1" vertex="1">
          <mxGeometry x="70" y="972.5" width="1520" height="420" as="geometry" />
        </mxCell>
        <mxCell id="aELBI8OFU14AnCiIAI6i-25" value="&lt;h1&gt;&lt;font style=&quot;font-size: 60px&quot;&gt;Persona &lt;/font&gt;&lt;font style=&quot;font-size: 40px&quot;&gt;Pain Points&lt;/font&gt;&lt;/h1&gt;&lt;p&gt;What difficulties does the Persona have? What impediments?&lt;/p&gt;" style="text;html=1;strokeColor=none;fillColor=none;spacing=5;spacingTop=-20;whiteSpace=wrap;overflow=hidden;rounded=0;fontFamily=Tahoma;align=center;verticalAlign=middle;" parent="1" vertex="1">
          <mxGeometry x="91" y="971.5" width="270" height="420" as="geometry" />
        </mxCell>
        <mxCell id="aELBI8OFU14AnCiIAI6i-26" value="Absence of crucial medincine" style="rounded=1;fillColor=#F86459;gradientColor=none;strokeColor=#B85450;fontColor=#000000;fontStyle=0;fontFamily=Tahoma;fontSize=20;whiteSpace=wrap;labelBackgroundColor=none;opacity=80;" parent="1" vertex="1">
          <mxGeometry x="417" y="993" width="460" height="78" as="geometry" />
        </mxCell>
        <mxCell id="aELBI8OFU14AnCiIAI6i-27" value="Wasting time on the difficult transport" style="rounded=1;fillColor=#F86459;gradientColor=none;strokeColor=#B85450;fontColor=#000000;fontStyle=0;fontFamily=Tahoma;fontSize=20;whiteSpace=wrap;labelBackgroundColor=none;opacity=80;" parent="1" vertex="1">
          <mxGeometry x="417" y="1130" width="460" height="77" as="geometry" />
        </mxCell>
        <mxCell id="aELBI8OFU14AnCiIAI6i-28" value="Reduces the money from the retired pension" style="rounded=1;fillColor=#F86459;gradientColor=none;strokeColor=#B85450;fontColor=#000000;fontStyle=0;fontFamily=Tahoma;fontSize=20;whiteSpace=wrap;labelBackgroundColor=none;opacity=80;" parent="1" vertex="1">
          <mxGeometry x="1063" y="1132" width="460" height="69" as="geometry" />
        </mxCell>
        <mxCell id="aELBI8OFU14AnCiIAI6i-29" value="The need to buy in private pharmacy the medicine" style="rounded=1;fillColor=#F86459;gradientColor=none;strokeColor=#B85450;fontColor=#000000;fontStyle=0;fontFamily=Tahoma;fontSize=20;whiteSpace=wrap;labelBackgroundColor=none;opacity=80;" parent="1" vertex="1">
          <mxGeometry x="1063" y="1000" width="460" height="77" as="geometry" />
        </mxCell>
        <mxCell id="aELBI8OFU14AnCiIAI6i-30" value="" style="edgeStyle=elbowEdgeStyle;elbow=horizontal;strokeWidth=2;rounded=0" parent="1" source="aELBI8OFU14AnCiIAI6i-21" target="aELBI8OFU14AnCiIAI6i-26" edge="1">
          <mxGeometry x="490" y="711.5" width="100" height="100" as="geometry">
            <mxPoint x="930" y="1061.5" as="sourcePoint" />
            <mxPoint x="930" y="1151.5" as="targetPoint" />
            <Array as="points">
              <mxPoint x="920" y="941.5" />
            </Array>
          </mxGeometry>
        </mxCell>
        <mxCell id="aELBI8OFU14AnCiIAI6i-31" value="" style="edgeStyle=elbowEdgeStyle;elbow=horizontal;strokeWidth=2;rounded=0;exitX=1;exitY=0.5;entryX=1;entryY=0.5;" parent="1" source="aELBI8OFU14AnCiIAI6i-21" target="aELBI8OFU14AnCiIAI6i-27" edge="1">
          <mxGeometry x="510" y="731.5" width="100" height="100" as="geometry">
            <mxPoint x="899.9999999999995" y="877.5" as="sourcePoint" />
            <mxPoint x="897" y="1041.5" as="targetPoint" />
            <Array as="points">
              <mxPoint x="920" y="1001.5" />
            </Array>
          </mxGeometry>
        </mxCell>
        <mxCell id="aELBI8OFU14AnCiIAI6i-32" value="" style="edgeStyle=orthogonalEdgeStyle;elbow=horizontal;strokeWidth=2;rounded=0;exitX=1;exitY=0.25;entryX=0;entryY=0.5;" parent="1" source="aELBI8OFU14AnCiIAI6i-21" target="aELBI8OFU14AnCiIAI6i-41" edge="1">
          <mxGeometry x="530" y="761.5" width="100" height="100" as="geometry">
            <mxPoint x="1680" y="911.5" as="sourcePoint" />
            <mxPoint x="877.1428571428573" y="1318.2142857142858" as="targetPoint" />
            <Array as="points">
              <mxPoint x="970" y="819.5" />
              <mxPoint x="970" y="1296.5" />
            </Array>
          </mxGeometry>
        </mxCell>
        <mxCell id="aELBI8OFU14AnCiIAI6i-33" value="" style="edgeStyle=orthogonalEdgeStyle;elbow=horizontal;strokeWidth=2;rounded=0;entryX=1;entryY=0.5;exitX=0;exitY=0.25;" parent="1" source="aELBI8OFU14AnCiIAI6i-23" target="aELBI8OFU14AnCiIAI6i-40" edge="1">
          <mxGeometry x="540" y="771.5" width="100" height="100" as="geometry">
            <mxPoint x="1660" y="858.5" as="sourcePoint" />
            <mxPoint x="1062.8571428571431" y="1316.7857142857144" as="targetPoint" />
            <Array as="points">
              <mxPoint x="970" y="819.5" />
              <mxPoint x="970" y="1296.5" />
            </Array>
          </mxGeometry>
        </mxCell>
        <mxCell id="aELBI8OFU14AnCiIAI6i-34" value="" style="edgeStyle=elbowEdgeStyle;elbow=horizontal;strokeWidth=2;rounded=0;entryX=0;entryY=0.5;exitX=0;exitY=0.5;" parent="1" source="aELBI8OFU14AnCiIAI6i-23" target="aELBI8OFU14AnCiIAI6i-29" edge="1">
          <mxGeometry x="580" y="811.5" width="100" height="100" as="geometry">
            <mxPoint x="1063" y="868.2142857142858" as="sourcePoint" />
            <mxPoint x="1073" y="1146.7857142857144" as="targetPoint" />
            <Array as="points">
              <mxPoint x="1020" y="1011.5" />
            </Array>
          </mxGeometry>
        </mxCell>
        <mxCell id="aELBI8OFU14AnCiIAI6i-35" value="" style="edgeStyle=elbowEdgeStyle;elbow=horizontal;strokeWidth=2;rounded=0;entryX=0;entryY=0.5;exitX=0;exitY=0.5;" parent="1" source="aELBI8OFU14AnCiIAI6i-23" target="aELBI8OFU14AnCiIAI6i-28" edge="1">
          <mxGeometry x="590" y="821.5" width="100" height="100" as="geometry">
            <mxPoint x="1063" y="868.2142857142858" as="sourcePoint" />
            <mxPoint x="1073" y="1086.7857142857144" as="targetPoint" />
            <Array as="points">
              <mxPoint x="1020" y="971.5" />
            </Array>
          </mxGeometry>
        </mxCell>
        <mxCell id="aELBI8OFU14AnCiIAI6i-36" value="" style="edgeStyle=elbowEdgeStyle;elbow=vertical;strokeWidth=2;rounded=0;entryX=0.5;entryY=0;exitX=0.5;exitY=1;" parent="1" source="aELBI8OFU14AnCiIAI6i-13" target="aELBI8OFU14AnCiIAI6i-23" edge="1">
          <mxGeometry x="620" y="851.5" width="100" height="100" as="geometry">
            <mxPoint x="1303.1764705882356" y="747.0882352941178" as="sourcePoint" />
            <mxPoint x="1303.1764705882356" y="792.9705882352941" as="targetPoint" />
            <Array as="points">
              <mxPoint x="1380" y="761.5" />
            </Array>
          </mxGeometry>
        </mxCell>
        <mxCell id="aELBI8OFU14AnCiIAI6i-37" value="" style="edgeStyle=elbowEdgeStyle;elbow=vertical;strokeWidth=2;rounded=0;entryX=0.5;entryY=0;exitX=0.5;exitY=1;" parent="1" source="aELBI8OFU14AnCiIAI6i-12" target="aELBI8OFU14AnCiIAI6i-23" edge="1">
          <mxGeometry x="630" y="861.5" width="100" height="100" as="geometry">
            <mxPoint x="1478.4705882352941" y="657.6764705882354" as="sourcePoint" />
            <mxPoint x="1303.1764705882356" y="792.9705882352941" as="targetPoint" />
            <Array as="points">
              <mxPoint x="1420" y="761.5" />
              <mxPoint x="1390" y="771.5" />
            </Array>
          </mxGeometry>
        </mxCell>
        <mxCell id="aELBI8OFU14AnCiIAI6i-38" value="" style="edgeStyle=elbowEdgeStyle;elbow=vertical;strokeWidth=2;rounded=0;entryX=0.5;entryY=0;exitX=0.5;exitY=1;" parent="1" source="aELBI8OFU14AnCiIAI6i-9" target="aELBI8OFU14AnCiIAI6i-21" edge="1">
          <mxGeometry x="-18" y="985.5" width="100" height="100" as="geometry">
            <mxPoint x="470" y="771.5" as="sourcePoint" />
            <mxPoint x="645" y="907.5" as="targetPoint" />
            <Array as="points">
              <mxPoint x="570" y="761.5" />
              <mxPoint x="742" y="895.5" />
            </Array>
          </mxGeometry>
        </mxCell>
        <mxCell id="aELBI8OFU14AnCiIAI6i-39" value="" style="edgeStyle=elbowEdgeStyle;elbow=vertical;strokeWidth=2;rounded=0;entryX=0.5;entryY=0;" parent="1" source="aELBI8OFU14AnCiIAI6i-5" target="aELBI8OFU14AnCiIAI6i-21" edge="1">
          <mxGeometry x="-27" y="960" width="100" height="100" as="geometry">
            <mxPoint x="821" y="756" as="sourcePoint" />
            <mxPoint x="646" y="791.5" as="targetPoint" />
            <Array as="points">
              <mxPoint x="900" y="760" />
              <mxPoint x="770" y="760" />
              <mxPoint x="750" y="760" />
              <mxPoint x="750" y="761.5" />
            </Array>
          </mxGeometry>
        </mxCell>
        <mxCell id="aELBI8OFU14AnCiIAI6i-40" value="She gets stressed each month when she needs to buy more medicine" style="rounded=1;fillColor=#5490DE;strokeColor=none;fontColor=#000000;fontStyle=0;fontFamily=Tahoma;fontSize=20;whiteSpace=wrap;spacingLeft=10;spacingRight=10;opacity=80;" parent="1" vertex="1">
          <mxGeometry x="418" y="1241.5" width="460" height="110" as="geometry" />
        </mxCell>
        <mxCell id="aELBI8OFU14AnCiIAI6i-41" value="She may not be able to get all the medicines" style="rounded=1;fillColor=#5490DE;strokeColor=none;fontColor=#000000;fontStyle=0;fontFamily=Tahoma;fontSize=20;whiteSpace=wrap;spacingLeft=10;spacingRight=10;opacity=80;" parent="1" vertex="1">
          <mxGeometry x="1063" y="1241.5" width="460" height="110" as="geometry" />
        </mxCell>
        <mxCell id="aELBI8OFU14AnCiIAI6i-42" value="&lt;h1&gt;&lt;font style=&quot;font-size: 41px&quot;&gt;Persona&lt;/font&gt;&lt;/h1&gt;&lt;p&gt;Who is the persona?&lt;/p&gt;" style="text;html=1;strokeColor=none;fillColor=none;spacing=5;spacingTop=-20;whiteSpace=wrap;overflow=hidden;rounded=0;fontFamily=Tahoma;align=center;" parent="1" vertex="1">
          <mxGeometry x="91" y="115" width="292" height="110" as="geometry" />
        </mxCell>
        <mxCell id="aELBI8OFU14AnCiIAI6i-43" value="" style="fillColor=#158EBA;strokeColor=#6c8ebf;opacity=30;rounded=1;arcSize=2;" parent="1" vertex="1">
          <mxGeometry x="1020" y="140" width="533" height="282" as="geometry" />
        </mxCell>
        <mxCell id="aELBI8OFU14AnCiIAI6i-44" value="&lt;h1 style=&quot;font-size: 26px&quot;&gt;&lt;font style=&quot;font-size: 26px&quot;&gt;Demographics&lt;/font&gt;&lt;/h1&gt;" style="text;html=1;strokeColor=none;fillColor=none;spacing=5;spacingTop=-20;whiteSpace=wrap;overflow=hidden;rounded=0;fontFamily=Tahoma;align=center;fontSize=26;" parent="1" vertex="1">
          <mxGeometry x="1040" y="150" width="229" height="50" as="geometry" />
        </mxCell>
        <mxCell id="aELBI8OFU14AnCiIAI6i-45" value="Older from 60 years" style="rounded=1;fillColor=#275DAD;gradientColor=none;strokeColor=none;fontColor=#FFFFFF;fontStyle=0;fontFamily=Tahoma;fontSize=23;whiteSpace=wrap;" parent="1" vertex="1">
          <mxGeometry x="1080.5" y="225" width="176" height="60" as="geometry" />
        </mxCell>
        <mxCell id="aELBI8OFU14AnCiIAI6i-47" value="Lives in Bogotá" style="rounded=1;fillColor=#275DAD;gradientColor=none;strokeColor=none;fontColor=#FFFFFF;fontStyle=0;fontFamily=Tahoma;fontSize=23;whiteSpace=wrap;" parent="1" vertex="1">
          <mxGeometry x="1061" y="330" width="215" height="70" as="geometry" />
        </mxCell>
        <mxCell id="aELBI8OFU14AnCiIAI6i-48" value="" style="fillColor=#158EBA;strokeColor=#6c8ebf;opacity=30;rounded=1;arcSize=2;" parent="1" vertex="1">
          <mxGeometry x="383" y="140" width="610" height="280" as="geometry" />
        </mxCell>
        <mxCell id="aELBI8OFU14AnCiIAI6i-49" value="&lt;h1 style=&quot;font-size: 26px&quot;&gt;&lt;font style=&quot;font-size: 26px&quot;&gt;Basic info&lt;/font&gt;&lt;/h1&gt;" style="text;html=1;strokeColor=none;fillColor=none;spacing=5;spacingTop=-20;whiteSpace=wrap;overflow=hidden;rounded=0;fontFamily=Tahoma;align=center;fontSize=26;" parent="1" vertex="1">
          <mxGeometry x="383" y="150" width="229" height="50" as="geometry" />
        </mxCell>
        <mxCell id="aELBI8OFU14AnCiIAI6i-50" value="Retired" style="rounded=1;fillColor=#275DAD;gradientColor=none;strokeColor=none;fontColor=#FFFFFF;fontStyle=0;fontFamily=Tahoma;fontSize=23;whiteSpace=wrap;" parent="1" vertex="1">
          <mxGeometry x="598" y="225" width="203" height="65" as="geometry" />
        </mxCell>
        <mxCell id="aELBI8OFU14AnCiIAI6i-51" value="" style="fillColor=#D6D6D6;strokeColor=#6c8ebf;opacity=30;rounded=1;arcSize=2;" parent="1" vertex="1">
          <mxGeometry x="75" y="1410" width="1510" height="330" as="geometry" />
        </mxCell>
        <mxCell id="aELBI8OFU14AnCiIAI6i-52" value="&lt;h1&gt;&lt;font style=&quot;font-size: 40px&quot;&gt;Persona Environment&lt;/font&gt;&lt;/h1&gt;&lt;p&gt;&amp;nbsp;&amp;nbsp;&lt;span&gt;What technological devices does your persona use on a regular basis? What is their technical ability?&lt;/span&gt;&lt;/p&gt;" style="text;html=1;strokeColor=none;fillColor=none;spacing=5;spacingTop=-20;whiteSpace=wrap;overflow=hidden;rounded=0;fontFamily=Tahoma;align=center;verticalAlign=middle;" parent="1" vertex="1">
          <mxGeometry x="91" y="1430" width="282" height="220" as="geometry" />
        </mxCell>
        <mxCell id="aELBI8OFU14AnCiIAI6i-53" value="" style="fillColor=#9C89B8;strokeColor=#6c8ebf;opacity=30;rounded=1;arcSize=2;" parent="1" vertex="1">
          <mxGeometry x="420" y="1430" width="610" height="290" as="geometry" />
        </mxCell>
        <mxCell id="aELBI8OFU14AnCiIAI6i-54" value="&lt;h1 style=&quot;font-size: 26px&quot;&gt;&lt;font style=&quot;font-size: 26px&quot;&gt;Technical ability&lt;/font&gt;&lt;/h1&gt;" style="text;html=1;strokeColor=none;fillColor=none;spacing=5;spacingTop=-20;whiteSpace=wrap;overflow=hidden;rounded=0;fontFamily=Tahoma;align=center;fontSize=26;" parent="1" vertex="1">
          <mxGeometry x="430" y="1440" width="250" height="81" as="geometry" />
        </mxCell>
        <mxCell id="aELBI8OFU14AnCiIAI6i-55" value="" style="fillColor=#9C89B8;strokeColor=#6c8ebf;opacity=30;rounded=1;arcSize=2;" parent="1" vertex="1">
          <mxGeometry x="1060" y="1430" width="500" height="290" as="geometry" />
        </mxCell>
        <mxCell id="aELBI8OFU14AnCiIAI6i-56" value="&lt;h1 style=&quot;font-size: 26px&quot;&gt;&lt;font style=&quot;font-size: 26px&quot;&gt;Devices&lt;/font&gt;&lt;/h1&gt;" style="text;html=1;strokeColor=none;fillColor=none;spacing=5;spacingTop=-20;whiteSpace=wrap;overflow=hidden;rounded=0;fontFamily=Tahoma;align=center;fontSize=26;" parent="1" vertex="1">
          <mxGeometry x="1019" y="1444" width="250" height="81" as="geometry" />
        </mxCell>
        <mxCell id="aELBI8OFU14AnCiIAI6i-61" value="Miriam" style="rounded=1;fillColor=#275DAD;gradientColor=none;strokeColor=none;fontColor=#FFFFFF;fontStyle=0;fontFamily=Tahoma;fontSize=23;whiteSpace=wrap;" parent="1" vertex="1">
          <mxGeometry x="438" y="318" width="209" height="63" as="geometry" />
        </mxCell>
        <mxCell id="aELBI8OFU14AnCiIAI6i-62" value="Senior Citizen" style="rounded=1;fillColor=#275DAD;gradientColor=none;strokeColor=none;fontColor=#FFFFFF;fontStyle=0;fontFamily=Tahoma;fontSize=23;whiteSpace=wrap;" parent="1" vertex="1">
          <mxGeometry x="747" y="318" width="209" height="63" as="geometry" />
        </mxCell>
        <mxCell id="aELBI8OFU14AnCiIAI6i-63" value="Low accessibility movility" style="rounded=1;fillColor=#275DAD;gradientColor=none;strokeColor=none;fontColor=#FFFFFF;fontStyle=0;fontFamily=Tahoma;fontSize=23;whiteSpace=wrap;" parent="1" vertex="1">
          <mxGeometry x="1300" y="258" width="215" height="72" as="geometry" />
        </mxCell>
        <mxCell id="aELBI8OFU14AnCiIAI6i-65" value="Samsung galaxy g23" style="rounded=1;fillColor=#60495A;strokeColor=none;fontColor=#FFFFFF;fontStyle=0;fontFamily=Tahoma;fontSize=20;whiteSpace=wrap;spacingLeft=10;spacingRight=10;opacity=80;" parent="1" vertex="1">
          <mxGeometry x="1110" y="1505" width="200" height="155" as="geometry" />
        </mxCell>
        <mxCell id="aELBI8OFU14AnCiIAI6i-66" value="Huawei Tablet " style="rounded=1;fillColor=#60495A;strokeColor=none;fontColor=#FFFFFF;fontStyle=0;fontFamily=Tahoma;fontSize=20;whiteSpace=wrap;spacingLeft=10;spacingRight=10;opacity=80;" parent="1" vertex="1">
          <mxGeometry x="1350" y="1505" width="183" height="155" as="geometry" />
        </mxCell>
        <mxCell id="aELBI8OFU14AnCiIAI6i-75" style="edgeStyle=orthogonalEdgeStyle;rounded=0;html=1;exitX=0.5;exitY=1;exitDx=0;exitDy=0;entryX=0.5;entryY=0;entryDx=0;entryDy=0;jettySize=auto;orthogonalLoop=1;" parent="1" source="aELBI8OFU14AnCiIAI6i-68" target="aELBI8OFU14AnCiIAI6i-74" edge="1">
          <mxGeometry relative="1" as="geometry" />
        </mxCell>
        <mxCell id="aELBI8OFU14AnCiIAI6i-68" value="She has some experience using smartphones" style="rounded=1;fillColor=#60495A;strokeColor=none;fontColor=#FFFFFF;fontStyle=0;fontFamily=Tahoma;fontSize=20;whiteSpace=wrap;spacingLeft=10;spacingRight=10;opacity=80;" parent="1" vertex="1">
          <mxGeometry x="440" y="1500" width="290" height="83" as="geometry" />
        </mxCell>
        <mxCell id="aELBI8OFU14AnCiIAI6i-69" value="She likes technology" style="rounded=1;fillColor=#60495A;strokeColor=none;fontColor=#FFFFFF;fontStyle=0;fontFamily=Tahoma;fontSize=20;whiteSpace=wrap;spacingLeft=10;spacingRight=10;opacity=80;" parent="1" vertex="1">
          <mxGeometry x="768.5" y="1516.5" width="253" height="66" as="geometry" />
        </mxCell>
        <mxCell id="aELBI8OFU14AnCiIAI6i-74" value="But its after many practice " style="rounded=1;fillColor=#60495A;strokeColor=none;fontColor=#FFFFFF;fontStyle=0;fontFamily=Tahoma;fontSize=20;whiteSpace=wrap;spacingLeft=10;spacingRight=10;opacity=80;" parent="1" vertex="1">
          <mxGeometry x="460" y="1618" width="243" height="82" as="geometry" />
        </mxCell>
        <mxCell id="aELBI8OFU14AnCiIAI6i-80" value="&lt;img alt=&quot;Razones por las que los abuelos son lo mejor del mundo&quot; src=&quot;data:image/jpeg;base64,/9j/4AAQSkZJRgABAQAAAQABAAD/2wCEAAkGBxMTEhUTExMWFhUXGBsaGBgXGBoXGBgdHx0YFxgeGxgYHSggGholHRgXITEhJSkrLi4uFx8zODMtNygtLisBCgoKBgcGDgcPGisZExkrKysrKysrKysrKysrKysrKysrKysrKysrKysrKysrKysrKysrKysrKysrKysrKysrK//AABEIAL0BCgMBIgACEQEDEQH/xAAcAAACAwEBAQEAAAAAAAAAAAAEBQIDBgcBAAj/xABAEAABAgQEAwUHAgUDBAIDAAABAhEAAyExBBJBUQVhcQYigZGhEzJCUrHB8NHhBxQjYnKCkvEVU7LiM6IWJHP/xAAUAQEAAAAAAAAAAAAAAAAAAAAA/8QAFBEBAAAAAAAAAAAAAAAAAAAAAP/aAAwDAQACEQMRAD8AznFk91fQ6f8ArHNZHvjrHYeI8TwypamUixs0chlH+rT5oBnx4HLLB5w27G9t5uASqXlzyyXyksU7tfq28Z/iMxZWMzsLRE4KaXmCWSmA7FgP4oYJVF55dveDu/TSHUvtpgFWxCAzajWPzwqWp2Yg7RBSWoYD9KjtFhCD/XlsKHvCjxBPF8Ikf/Og/wCoR+bc0fPAfpIcXkKPdmILXqIJl4+XotJq1xH5lCzvFicSsfEbvc33veA/UAmoPxDzEVTZEpRdQSTzaPzajHzy6guZd3ClXhpw7BY+fVKpjXcqUK/v5QHfhlFEkAcrQNLlTQsq9qFINktUeMcJ4gjiGGYTVTkk1Azu+mhLdDAWH47ipasyZ00K5qJvyMB+kZaS1WiWSPz0e1+OSEn+YVUHavWl4nK7aY82nqOlhrZ+cB+gvZwp7ST8kkpCikrOUECo3McSHbrH/wDfNmsPPrDTgfafiGKmplIWFLJAcpGVCfiUrYCh/wCYDrnCcBJQhPswCQPe+IvdzzgzESi3dOVVxqPEbRPBygAA5OhJo7XLRLEKZTndvC31+kAsw+BKVqWlbBZzKQapBapHy7vzhjVtDEUnT83H6RJ6U6/n5pABYnh7vlVlKqkgPUWN/eFKwl4twTGrUDLxCWSHSA6VE2q7ivWNJm9D6GhiyTLJc8m8b/eA47Nw0wTMQvFe2SUgUZ8xLs5f3eYpGanTM4GeiXvyBYx+h8ZwyTPQqXOS6FhixIN9wRHL+2vZlGBmCelBmYQlILe+gvYkb0rrbSoI8dxJEuT7KXPomgEtgkg94KfVRO9op4bxPEYgNlzFAWpJUoDLR3FKFxeFOPxMtSlrTKAClFVQAQCGammviYGw+NAUxKkoIYsTT9jtAV4hK5gBDlN+Q9b0gNaWprry5Qy4viEg5EgM2mhLNbkPWAJYc2amkBBE0gECyriL5c4MgEOA5bxpFCyxLWizDJupqJvAOGCkqUkAvTZyNjp1hGtNTfygmTi+4qW1yCG9ftHpnjaAu4TKBlzyRUJp5K/SAcJ76esNuHp7mK/xH0VCrBe+nrAG8ZUolyYs4fxxaAEMCIo4kSXfeF4gG+JxftF5sjLsXNGgPiaCFAsA40LwbIkmYErLbHraKeMycpEAsj6PY+EB80NeB8BmYleRAa1WP436jePOD8OE6cmWXAVQG+juPKOtdguzYwy1rBUx7oCg1Hcq3JsHpaAnwPsRhpKRnQlatSplE+cajB4JFkgJ6fvSClSXNKDQC3jE1yMrWbkYAPiHBZU4AqCXCgaAFxXlzgCX2NwDl5ALmoUS3+23pDpJIqD1ihU8atW32gKf/wAawpRkEtOXoD6mMxxL+G8lKZhkEpzEKKTYlNQL2v5jaNejFCz9YqGOBcfn5aA46j+Hc1cxKUEsVd9RFEByx8hHWuz/AGYkYSWESkgUAUs1VMZ/eVs5JYUDx5Mnsbt6QXgsdRjpAEJGX/T9LfnSL50vMH3+usUqmB38+Yj2TOCXQ/TqP/VvKAolhixuPUfn1izXz/PX1ivFLGYKGl4hnryuICaEgv0+4P2gnN9j+v50imXz/wCY8C6wBkttXP5ubRfi8BLnSlSVoSZakkFOn5aBpPSnr5QyQARdvAv+8B+Y+1nAl4bETJBslTg3Kkn3VdGp1BhRKQGBsHqY7d/G3gufCe3RRUojNWqkK7tQL1KT5xw1EtS2AFB+ecB8QcxoX21ikgg84JmYdSQC4rTmN3iJBmEFusBQRFgV3co1LmCEYR7G1wIFWa89YCK0sW2j5S3Lx6hnqKQwGCT8qoA3hjGRiTqw+ioUcP8A/kSecOuzGCXOlzZaLqYPoL1PKOgcNw+Hw+HEmagGYkXAoo7v+XgOZcSmqIL/AEhTHTuH9lv5z2gUr2ZPuMHpCXiPYmdLlmWmWZkwKopIoR1NoBNwOcMikHUuPzwirjwZQHKN12b7ApEhUycpQms4SLDbrGK7RIIUAQxFxtAJTEpKCSwicqSpfuh7W50EabBdj5olCctw5ZhdrO/0gNJ/Dnszmyzlp1CkjejC2gv4x1nI2xYXhd2dlBEsPdh5ARfNnuYApG2sSDJLkvASJ7RXip7Ch6+EAXNnZgzOPKE2PQoe6QPzpEv5+zxNWNQaM5MAmOIW2U05in7mLOHz6l6Dn+8FYySjkIU445UuDbaAYqnBSr+ETAKS8JOBYgqzk6KaHftIAhGLLNEvbOx2gFU0XESkq56wDEHNBcqggCTOEEiY8BafeBi9SA/I1heJ3eA0/GhihVG8en594C6VSDZS26+UL0nnF6JoG58YAnGyEzpSpawClaSCG0NOrx+c+2nD14LEGUzoD5SX7w0LsATyEfo6Ut45t/GzhaPYJnn3h3QXNHL0ALPo94DjM/GqU7UB0vEZOIKdHG3KKMukMFImJSoZWB94lrbCAjNKU1SaGhTqNbx5LQgICndT2v6RZhpaQkqURlKgz3e1orxEoKOaXuabeEBevCpICks31rrFMyfUsKPzg3AzKBJ6kcoFm4BWYsQzneA1P8NsPMUmdkXkfWmg5x0vjPClTcKk5kd1NWFTHNuzvFJMjDoUk6/1DzLX84O7U9qSmSEy5wKlfCk6QGl7FTZntFBAZDd5w7Hr5xofbYpYWlMpJSHZQpSOTdnf4iKwySn2IW93U1fKNdwv+J0r+WWVHLMY93c8t4B9O43JDoIIKUivOFEvBy5k3uhKgqjNd+cc44r2wmTVhQSAAGbU9YJ4b24nSz3EAnTWsB2LG9mMJKA9nKQkliQkAVjzByBUUYxVwziKsQlC6sQNGINHfpWDpUlt/MmAikZXA6CK8RQQRMRUQJxAsAN4ClE0tfziJnVcKBbp4xFEt6/nlHi0kaGtICJQHB9NtCImpQBcaRXMlKFrbQGpZD/aA+xc1jm10jOcSx6mOz2A6w4xCnFf+Yz3FCySTR38BAMOy62Sv/8Aor7Q1mYnR4Q9jpmeTm3Ur/yLejQ3xMneAkmcNTBUnEPCkSn1i6XJULH0gHcufpBPtKvCqUFamsEpVAX+1rTWGMnEu0IpqmUOUFS5r94NzH3bnAPJc9yxf8+sFIUNT+eEIpeJNGs7QZKnE6Wvp9oBvLntGa/iZNSMEsrCg7MR6gjUERUripM7IE5SFAAuS9M3SzecKO33HlT8uEQ1GUSRr4XEBymXhlg5in2gDMQL6+kMeHpLZpvdLqIGrUvFnEcCwBEwgk5TQ5HF2Oh6x7i8rpQCwSnXUGoP5vABYjHywaIetm6QFjkoWfaSye8WUDdJNvCPksXMUqw5HfB5wBuGbOuvdQhqwuOKXoqkEypKhh1rYspQD+v3hc8Axw89Iw0xL94qt/t/eAJMvMW3iJEE8NH9RMAMpLFjHkHcVl97MBe8BGA+EF4HNmSzs4duogONB2Uwf9dIUBUUetdHG2kB1/sdLaSmYr3ikBtt6bw+UGDwDwwFKEggJpYQXPnBKXVaAimY1TCzGTsxfYUiM7HhY7rsYpOIFQO829PAmxgAzjlqLCgFoFn4vFoJ7rp0384KxmKmS2EnCmYpn7ykpSPGpMKk9pcYS0zCFLfKMw8wSR5eUAxwPFyqiqHb9ILViBqIT4ecmfMdKSks6hBvEh7NBMBLEzkCMX2gnvmc01ZqO5D1fQ+UFGUudUzMvi0JOKcPEkK7xUo7mlj5m8A97J4hEqUEiYkguXW6H8agHqY0ErGEixL7MseaXEY3gMomUliBTUOHhlNwCrpWlPQfd4B5JxiTprBsnEpOg/PGMkZoEvOmfPD1ZbqqKFlPUU2g+Xi1BspDf3JSfqIDVSVIO3nH0yVlqC4jOSsTWq0DxT94Ow2MT7uZL3BSrMOhD61qOjVcAwnTEs8RyKBsRR2NPP8ATpHuBWFAKQQo7sWT0BAJVzsOZsUjV67neAK4dKzGvus/5zp6ws48ZwmhEtObugihoC7udr+UOOFEJ7rVMSnSyJomPQ9w6jU/UwCpElR9mpiSnuqVz7o+x/2xiu2uAnSFLxKVj2c0DKoVYsApJ2VR+h6x2bAy0SJYSSNyTZ6Hwu3h4RmuC8Ok4hGIkKGaTNWsAXy0SpJD0BSoEjpAcs4MHk+ymCi6pervU311hVx/DpQhJSpRKiT3qEJACRTZ3jRcT4fNkT1yJwGeWQAQGzJNUqS9kqDeo0jO8YOYiurWqNxALZCNjeG+D4UsBpo7tD4UtvFOAkILgPS7/aGOMxcxUtKHtQHWAnxiYPZ+xlgrCxQjStCYVp7MK/7iPP8AeHUtbHI4zAB/ARX/AC6NRWAs7XcKlJlqUlIBEZLhT+0DRdjeLTpoIWpxFHCy0xJZw9WgCOKinjCyG/F5ySCMrF4UQE5QqI1/ZoD26XtT0jIyA6hGkwk3Krm0B2PCzUsDmcCkVcRBmAjRqRl+yePVOPsQkPd7sLEmNdjJPswADycwC+Th+4BbLTrSCpLWf88Irzhj9YAM+pbSAZ4qUhQZR5g6jmIXowK3b25I5lzAy8a5qbQLieLkkIQHWaDl1MA6HDwCKudTrFPFcOFoY/ttF+ClKSGWpy340R4qSEOmpY+ekBzzHcMlZihWZKtwoh9uRHhCrieCWlLJWqYlqpJduf7xtiETACQFA3BHoxgDiOEQlBCAE8hT6QCXshNmFBAAUkGzsdLGNIhSQKomFZsnKWfSth1eM52cBR7Q/Dn+v2hwjFFc6Wh2BV9K/aAaYnBASEyhdKQPEX8z9YTcLUfcUlmoHYP+/wBY1K/pCPiOHmkKVnSNk5Qac4A0JFlSiTu33guVgUqDKSACGb001hFwzii1JGWYpJFCmih4OLQzlLUQylvyoAerVgHfDWVLSpgxSCSBuHNv3guYgBLj7QHhZgBBAbkNOjQ6VLSpBasABgPfEEcIx+aZNlKSW9oogsdDcGBcOk5huSwENFnKnIN+8x1Lkn6nSAF43ijMdINLkOzvbwd67DlFHYdBQCatndL3YlifUxNUsrLBzU05sGHkz835wfw7DhFSaswBBYPlAuz1cvAT7b9nBi5IWgf1pNUgCq0pPeR9COfUxw3FYMLGcHUmlyDW2jGP0JKxigSQ1lmhaxAtGS7Y/wAPPbTTisFlQtT+0kqohZLEqSbIXWoNC70q4cZTJILiwr+sFIxRBJYZW8X6R5x2SZa1yVpKFpcgGhDXSfzaFSMcQOb+kA5l45IZglzuPE+MSOP/ALERnv5j89Y+/mDuIBuns+SwBvc/YQfieFCUkBJAVy06neGS8UmWGfMo3awhfOxgOhgEvGMJkAN3NTCtSWhpxrFZqNYwpgCMGO8I6h2W7BLnyxOnLMuWr3QA61DQ1okbXeMF2Q4SvFYqVJSkkFQzmrJQC6ySLU9SBrH6VSkMAkMAGA2AtAIuCdmpGECjKCipQZSlFyQC7MGA8oLx8rMAbsQfWCpimiqSsEekAj4vgxLJyhgoO2j2P284QJJcjnGs4ujNK5oNf8TR/p5GM4qWAoHw8/wQGe4hiwFMpYQCWckB/ODJGDAGZJrcEfrFfFeCJn5kqHQ6g7iEmCTOwzSpqFFKSploOjd0EdesA9RxNaFBK15hzuPEXETm8XWqgS9daAQoGLBbvpJb4hV3ZqXgDG8eWFCXLQFrPIhoBlhsWRMUFaknziHFcUGeAUImFlTAARtFWI7xY2uen7wDDAIaXka4rzep+sU1QXHvoLjn/wAiCcAaE+DRDiDkFQ+GnUXI66wBGG4xmGYJNdDcaQvxs+ZN94sPlFvHeIYbKpKSDQ2Ii6ZhSbTCPIwAZeX3nbm8McDxDNVLEi7FxCmdwYFitalNuYM4Lh0y1Fh7w+kA6k46YFCtI1eBxlKmMmCHa5jTcHw9M6qJFBo5a/Qb7tAMsFJPvqufdHyjfyc+IMXplldmYJJKiOnqKeZtHwSVO/doxOlas27Mw6sYtkyczukt3hXmAaDZ+nOsAdJwyEBgruhWhBfuPXcuXgvCyAwr8g0FU9/9oDSnQPUpNRY0CtPlHqYMlylH4lPXb4j3fIekAQJIUPChFxnPjBUnnq/oyYHlprZg+rUCemyq+MXyzvengSXUPoawGZ7fdhZPEUPRGISGRNa7P3VtdPqPQ8A4p2emSFLlzElMyWWUm/Qg6g3B1Bj9TzCrL3Wd3D1F1GrF7bRie2nChjJZUhOTGSA+QsTMRqAfjQbpNwaEByID88yZLqCS43hl/wBIT85/PCGGJS6sygl4sB6eUBdMlppUxPB4BU5Yly0lSr7dSSaARWsAJd4b9nJUzLMmoSooAAKvGoG/NtoBFxbsljMzJw8xTapGYf7kuDBv8OexX83PWcQlSZUls6C6VKUbJ3SKOdbb012G40QQxJJLAC52AG8dE4NgyhGZYAmLYr8mAJ1YUgK+GcLw8gESJEuVmbNkSElTWcipufODUyx8NOUE+yERMmADxEp73hLOWZUwP7q6PzFR940xRoYA4nw5MxBQpyDrqnYjmIAJZcOA9GI+YaiM9xHDZSwqCHQdxp4ixg2XiFyVhEyp+FWix9jyj7jUtOR8zSlFwv8A7S7BTfIbKHjALAgGo1Yx9NkuCKF4pkzilSpUwZVpNRceG4Nwf0iwzYAGZw4fIHGrV8xC9WASFuE15/rGjVPpCrHTQhJWo1NoBHjiBQRPB4ZJlqSbrF9mqnyMK/5n2inFoaYZVIAXBFkh9HJ5GPJk0AEnQEnYkxUudVTb/ggDiKnSE6KVXkBUwEeHzwiYZSiO9VPUEgj0jSIkJIqS8ZXi8ploNr2voeW5irDdpJjswVtof3gNTOwg0PnA+ImBDBNSbfmggT+fNCSRyMNZGG9lLM9bmaQ6ARRAvmUDrZknqdoB52c4KkpK5qwAC5SPeVr3h8KbAC9Y0CCSXAZm7gFG62tR9WZnjlvZTheJn4n2+dUtIIK13cH4a+8pXOxrtHTJ8/KcoSVLNAkVKj/f6ODTyYAemic10vRtP8Rtatw+1ppzJSVTJhSBmIFHbYtR/HSE+J4wqUlj/UmzA2VFh43IAOlmIcm88FwmbNZWIWpbH3cqkpswdx3i5AY7GAY/9dKyRh0FTt31FkGzgKq72psYuloxCi656wS9JQBANXLqDkC1otkyEpADpo9+6kN7xAew90U1gkSls3ugNRH/ANUt9aEeBgJYVJTuQwfMrvBIdqaE7U1GkHpnHevqFG3UJHpXnCspSD3iVF6GoJV00SG02s4rfKNq75Vb/MWHo27i8A2TMDBvDyYN+awv4xgzMSFIOWbLrLULgs5TzSoUINLRNM6gIto1jt4VHrtFoX+fWA4r2w4QlU4TEgpROdRSKZV0zpcGznMBsobQjPBAKe0X5mOmds8EAiYrKSEKEy9WJYgdM3KiYwP80n5T5wDjs/2T9uhMycSJRqEiiljr8KfWHfHMUmXKEqWMqaAAUAANYeYrLJlBKWASAPAUjGYNX83jZckVS5UutkJ97zLD/VAbDsZwJKf/ANmYAVrH9MEe4n5v8lDXbqY2EuBJZ0/BHpnk0T4qgGHtQLmPRNBs/lAckpf7m8E+yBsYCaj18opvrHipakx8maDQ1gAuKcMROQUqHTkdxsYQ8Jw00Im4eeHy+6W95Jfw0PnGtKNj4H9YqWnl+cjAYLE8KM6UUJJTPke4Tcp0B3At5RncPxMlRlzUlE1PvD7tqDuI6Jj0eymy5oHdzZVdFUL+b+EQ7S9l5OIFRlWPdWn3kn7jlAYOdjSnWMj2k4qpZEt71PSHPF+GT8OrJNL7KAoobiMflzYpjYlvSAe8Ll0hyEMmKcBhmFYM4ickoq5GAzgmOVdTEVAlXQNyJN/T7xTw1yl9SX+5hhh5eajGp8QN97flIAHtC4lpUbsw0NQ30EK+D4BSjmakaLtVhh7NFH7wtf4nFPLwh3wDhLpS4oGcbubQAnBuDlRSpQ7oIvr+sOcdhP5lYlI90MZijUB2o2poC3O8O0SUijBxRhYA1HXSPZihKRlSKqq+26lEaXqNA20BBUxGHl5UHKEgOTXI9Mx+ZZ0FX6PARxRAyyk1NCT3ixds5Hj3BtrE5ki0yYrugKIHuqJ1UpXw61A2AuQfZSlrfJllotmykFTimRLuASTXzMAfhZEmQAtS0GYaqUe8amlraFgzDSL18QUQ6FECrFRAT3aJ99JejmFsqUx/ppJVbOWJe5IBoAOl4LlcNzVWc5+VRY/2gOxBLAm/OAj/ANUIce1XMb4UJSxDMK5a15OWglGOxJqhKUgEEhepZqpAfMQdwLQXIwiU/BlL3FidSW0TaouOhixU1NG7ze6Q1BqqlCo1Zq8riA8HEGy+1SUv3fmSTqArRRNHO27QbKYe6aEh9kMbDbKdN/QFZ7p+LQp1GyK67g6as0W4CYEpYkZfqRQsDb5SLlxuSQOmqYAAb9AH7x5u5I384tEyv5+VgNM3NlJoK+hIY9U/Q2iMyYXR/mL6Uy/X80gIdppSFYacV6S1gc3SX/OXOOVJkoaxjp/a5bYSf/ifDYfQ+McnA5nzgNt234hkwyqgqLANzpAH8JOHH+vil3U0pB5DvL8Hyj/RGU7bTpoKEOXeibkk0DR1zs5w8YfDSpOqUDNzVdR8yYBjNmWA1+msSQqAyt1Hyi9KoApJixGIaBkqiZlvAM5OIBiGIlaiFKpak1EFYXiGh9YC+TM0MTWd4rnSn7yfKPELzBtdICM9AIIUMyTfXz3EDcV4tLw6Uqm5ggkJzAOATQZtns8Ey5lcpvEMRKStKkLSClQKVA2IP6wCDi6sLipakqWALuQUlJ0IKg32jmXEuzC5WKlFsyC7TB7pDbigPKNniQvAuhaFTMOD3JiQ6kJPzDUCGElcoAqAHs1iuQOl/hWAPI+EBmZksS5ftF2DUDOXoGfWF3EEmcKjKnQa+P6Ro+KSUKlqUXUySXdxyIq2j0hYUjI+weAyWClgJ6OOdKfYQ64TIdaa2BL+gfxe7Qk4Wt5YJN6+Z/58o1HDFJloXMUrKKCtfIO7lzQawH2M4MZ8yWKBCDmUrlUAdavekNcHxBC1exw4CkJcLmfAG0SfjVe1K6kRlsViZuMmCQh0SXdYrmWBcrOtaZbRsuHYVMpAQgMLN9S/5YwBiAB3ra/5fqr1tCPDY32s1S2JTnyjKHCiliQBR3U3LLLqYY8TmktKQe8aNqCaa2CQSajUQTgOGIlpASNAkF6hLFgHZgHUfCACRw4rWZs8lRJGRAZSEXZyAy1hLlywDhhRywErPU5VC7afKgagA30qIJMvmUk/NueuoSN9YsyE1y1uGvWibsWZyQ5aAoRLSkMHFwTow940cVUwNovTKN1kUDnk/mCwcCn0iZKZYLvRgHY1Fg7ODdyfsYAnYgrvUCri/UDfYA7XpAXLxLslIKXoAbf4jTmWPKtInLv/AHE0OilbnkNjXY2Jplim411IGiRuo057H3YtAvqDQi7bIG/MGvgzBZcgO2ytxqep0FxUiPVLzLCWFKHUAsWeoFO61fiOwjxRZN3sdzejb7J5jWjiz8UmVlGpLpSPPxc15V8QazKUTdmH9tDt4RWpLrTqx8jRSSdN/SEwnrSp1BzokadN+sMsPjSpKSdb9AXBPkRzeA97VJzYacAHZL+AIUfvHOErSw7sdB46tZkTlBsoQabuQD6Exgxj+QgK5EoYvikmjplJCjs4cj1byjqoVv8Am3pGG7BYN5k6a1Cph4ARtpu8BS9Rzixa2/PtFU0s0ezoAuQt4KRCyUtoY4eaDAEIIiudgwQ4i72Z0iSIBckrlmC0TUrrZW4+8ErlAwLMwOogLZ0kkVuLK/XlFSTvQi4j6UpSYtWAqoooesAvmgKTUA3BEZHHSf5J1pB9gS5Ar7Im9BUoPoY2aZeUkc384Bx0kEFJqCPQwGSx032iQuSQQr3k3Sobg7wumnu5eTR9g8MrDrUg+47a20tHuPSyn3r9oDLcHl0SNAwPQAv+njGtRwTOEuMzgKDrZAtdu8pVQ/k0J+G4SpTTvLN2sKD85xtkLY0ItlG/ug2f+3aAVSsAJT2L5dAhIqTRgTpdwaQeuYEoC1aB3cUook1bT/ygTFzWXp41NlM5cNE8ThjNySQ4C/eI+V0jcVIS1rqgI9mpRmZpy6lRLOxo4NB4HyA0jQs3wn/T5NTcsKiyTH0rDBICe6lIDANQAcnIowpyj5c0JpVNt1cgB/cdqEPS4JCaZZ3cGmxOqz5sGIiidjAkH2bF/Tm1n0AIH1inEzyXeh+JqhtE2Zt33O9BWepruRfwq7nYFx1MB7mKiKkGyQajnrUbsXJbxtlotoSe6bhR1UdxsCxs1w3qJYYvVJYKFzyQPmvY1rzDWXf4hZQueSA971BrXnQPZYqNDVjcHdR3vY1rShpbmAqaaNqp9OajvcPo8fIQ/MG+tvUpSfF/GBMVjAzk/wBMUzak8t1Hfcb2CU/FBAK1kAjawewHM06ePeSYeUpcwzVvm0Gw0H3MFylKWQtaaCyfl/VXPnBqJQUCQGArAUz1076gUnXUcm3gvA4dUzKziWEg3uWsBokRPC8BJKVTjUVSgGg67q/WDsbifZfQQF2PlIMpUoFgZa3o7UYMN3+kcwlAEA5RYR0vApZCiu6UFauTghI8A56xypGMWw/SA2/Ygj+VQ13U/MuYfKXGd4AoScHIYO4JOl1F/rDpcB9MU4iwF0g8oFSuhi7DHuwE5cXImEQOi5ix4Bvg8W94YBIVaMxmaGeCxJYQDPI0SESlTHETKYCGQGImUIkY8gKJ6AesJ8YTlNLHxh3NlhoUzq5oDJcWSS9APWM5xWYSEkito1WNDiMnxMCgt3oA3hbZhUUDsaX0v00h7JJUpgebeaeluUI8ES96EE+TeHpDGTOIcC9A/iNIAn+TlhWZSsx+UUA5nU+9ytDXCrDMEsn5QADchhoXt51gDh2GzVUXq1R1T9hB80tahDMb1VSo1gIzZn+oOzf3aAP8KbsaipuDA2enzB7HVWpO4FmNaUNBEUHNWxCsgIvYKJrcl9X33ela3UEszkpcUYJe2um9KXaA9ZyGd3YPVzr5XLF/IPdLRZqE21Cjqo/MA9qHa4j6VLDpTovMOgS4bm7dedA3ruUA1Ex3BqwDMOY7313oHuoahNjcHdRe96A786Wyka2OnP8AUmt6gEnUxGSl8r1Cw5euxA5prbruYhNnl8vMgHUMVAl9Vd010cXq4V8TxSUpUDRgCvZrN0uARe13BXSZZm980Hwp259T6fVFxPGKm4pMo0Ql1ED4iDlD8g1o12DlsL+kBXLQQPz9YIws8AglPqG8gKwPj1kJcU8/1gWQCTeAe4jirF7jWKpuJTSYzqdkJ2MKFY4BRl5Harv+0F4SbnKCQzOfAaDZ4BqZoGDmgHMoy1lRvXKfpHN0WFrR1DBYZORQAACklwLB06COPomKYVgP/9k=&quot;&gt;" style="rounded=0;whiteSpace=wrap;html=1;fillColor=#FFFFFF;fontSize=20;fontColor=#FFFFFF;" parent="1" vertex="1">
          <mxGeometry x="91" y="225" width="286" height="190" as="geometry" />
        </mxCell>
        <mxCell id="aELBI8OFU14AnCiIAI6i-81" value="Widowed" style="rounded=1;fillColor=#275DAD;gradientColor=none;strokeColor=none;fontColor=#FFFFFF;fontStyle=0;fontFamily=Tahoma;fontSize=23;whiteSpace=wrap;" parent="1" vertex="1">
          <mxGeometry x="1320" y="165" width="176" height="60" as="geometry" />
        </mxCell>
        <mxCell id="IwRJc_u8qGVA8Lk65ieS-1" value="Has EPS" style="rounded=1;fillColor=#275DAD;gradientColor=none;strokeColor=none;fontColor=#FFFFFF;fontStyle=0;fontFamily=Tahoma;fontSize=23;whiteSpace=wrap;" vertex="1" parent="1">
          <mxGeometry x="1308" y="340" width="215" height="72" as="geometry" />
        </mxCell>
      </root>
    </mxGraphModel>
  </diagram>
</mxfile>
